# xmcd
#
# Track frame offsets: 
#        150
#        38490
#        86395
#        132800
#
# Disc length: 2426 seconds
#
# Revision: 5
# Processed by: cddbd v1.5.2PL0 Copyright (c) Steve Scherf et al.
# Submitted via: ExactAudioCopy v1.1
#
DISCID=22097804
DTITLE=Miles Davis Sextet - Miles Davis and John Coltrane - Complete Col
DTITLE=umbia Recordings - Disc 6
DYEAR=2000
DGENRE=Jazz
TTITLE0=If I Were A Bell (live) (stereo)
TTITLE1=Oleo (live) (stereo)
TTITLE2=My Funny Valentine (live) (stereo)
TTITLE3=Straight, No Chaser (live) (stereo)
EXTD=YEAR: 2000
EXTT0=
EXTT1=
EXTT2=
EXTT3=
PLAYORDER=
